<svg width="146" height="50" viewBox="0 0 146 50" fill="none" xmlns="http://www.w3.org/2000/svg">
<path d="M20.7819 22.7507L27.3815 37.4254L34.4908 22.1122C35.0488 20.8835 35.5961 20.0089 36.1327 19.4992C36.6692 18.9841 37.4848 18.7319 38.5793 18.7319C39.6149 18.7319 40.4948 19.0056 41.2245 19.5582C41.9489 20.1109 42.3137 20.7494 42.3137 21.4737C42.3137 21.7581 42.2494 22.0907 42.1206 22.4663C41.9918 22.8473 41.8416 23.2014 41.6752 23.5287C41.5035 23.8614 41.3104 24.237 41.0904 24.6662L33.2675 40.0492C33.0475 40.4891 32.7631 41.0525 32.4143 41.7286C32.0656 42.4046 31.6793 42.9895 31.25 43.467C30.8208 43.9499 30.295 44.3255 29.6672 44.5938C29.0394 44.862 28.2775 44.9962 27.3815 44.9962C26.2279 44.9962 25.305 44.7869 24.6182 44.3684C23.9315 43.9499 23.4217 43.4938 23.0944 42.9948C22.7671 42.4958 22.2145 41.514 21.4365 40.0492L13.6726 24.8325C13.4955 24.4516 13.3077 24.076 13.1199 23.695C12.9321 23.3141 12.7712 22.9278 12.6424 22.5361C12.5136 22.1444 12.4492 21.801 12.4492 21.5166C12.4492 21.0767 12.6156 20.6367 12.959 20.2021C13.297 19.7675 13.7638 19.4133 14.3647 19.1397C14.9603 18.8661 15.6095 18.7266 16.307 18.7266C17.6591 18.7266 18.5927 19.0324 19.0971 19.6494C19.6068 20.2665 20.1648 21.2966 20.7819 22.7507Z" fill="#F05B72"/>
<path d="M15.2445 15.8867C14.8582 14.0516 15.3089 12.0342 16.6235 10.6231C17.6322 9.53387 18.8877 8.99732 20.1272 8.99732C21.3666 8.99732 22.606 9.53387 23.6201 10.6231L25.8844 13.0644C26.6517 13.896 27.9447 13.9443 28.7764 13.1771C28.814 13.1395 28.8515 13.1019 28.8891 13.0644L31.1426 10.6338C33.1654 8.4554 36.1164 8.4554 38.1392 10.6338C39.4484 12.0396 39.9045 14.0516 39.5182 15.8813H43.6765C44.0306 13.0429 43.1882 10.0758 41.1278 7.85446C37.6134 4.07176 31.6577 4.07176 28.1433 7.85446L27.3867 8.65929L26.6087 7.82763C24.8542 5.93897 22.4934 5 20.1218 5C17.7502 5 15.3787 5.93897 13.6242 7.82763C11.5584 10.049 10.7214 13.0268 11.0809 15.8759H15.2392L15.2445 15.8867Z" fill="#F05B72"/>
<path d="M63.7188 22.2031L67.1719 31.8906L70.8906 21.7812C71.1823 20.9688 71.4688 20.3958 71.75 20.0625C72.0312 19.7188 72.4583 19.5469 73.0312 19.5469C73.5729 19.5469 74.0312 19.7292 74.4062 20.0938C74.7917 20.4583 74.9844 20.8802 74.9844 21.3594C74.9844 21.5469 74.9479 21.7656 74.875 22.0156C74.8125 22.2656 74.7344 22.5 74.6406 22.7188C74.5573 22.9375 74.4583 23.1875 74.3438 23.4688L70.25 33.625C70.1354 33.9167 69.9844 34.2865 69.7969 34.7344C69.6198 35.1823 69.4167 35.5677 69.1875 35.8906C68.9688 36.2031 68.6927 36.4479 68.3594 36.625C68.0365 36.8021 67.6406 36.8906 67.1719 36.8906C66.5677 36.8906 66.0833 36.7552 65.7188 36.4844C65.3646 36.2031 65.099 35.901 64.9219 35.5781C64.7552 35.2448 64.4688 34.5938 64.0625 33.625L60 23.5781C59.9062 23.3281 59.8073 23.0781 59.7031 22.8281C59.6094 22.5781 59.526 22.3229 59.4531 22.0625C59.3906 21.8021 59.3594 21.5781 59.3594 21.3906C59.3594 21.099 59.4479 20.8125 59.625 20.5312C59.8021 20.2396 60.0469 20.0052 60.3594 19.8281C60.6719 19.6406 61.0104 19.5469 61.375 19.5469C62.0833 19.5469 62.5677 19.75 62.8281 20.1562C63.099 20.5625 63.3958 21.2448 63.7188 22.2031ZM89.5156 29.2656H81.1719C81.1823 30.2344 81.375 31.0885 81.75 31.8281C82.1354 32.5677 82.6406 33.125 83.2656 33.5C83.901 33.875 84.599 34.0625 85.3594 34.0625C85.8698 34.0625 86.3333 34.0052 86.75 33.8906C87.1771 33.7656 87.5885 33.5781 87.9844 33.3281C88.3802 33.0677 88.7448 32.7917 89.0781 32.5C89.4115 32.2083 89.8438 31.8125 90.375 31.3125C90.5938 31.125 90.9062 31.0312 91.3125 31.0312C91.75 31.0312 92.1042 31.151 92.375 31.3906C92.6458 31.6302 92.7812 31.9688 92.7812 32.4062C92.7812 32.7917 92.6302 33.2448 92.3281 33.7656C92.026 34.276 91.5677 34.7708 90.9531 35.25C90.349 35.7188 89.5833 36.1094 88.6562 36.4219C87.7396 36.7344 86.6823 36.8906 85.4844 36.8906C82.7448 36.8906 80.6146 36.1094 79.0938 34.5469C77.5729 32.9844 76.8125 30.8646 76.8125 28.1875C76.8125 26.9271 77 25.7604 77.375 24.6875C77.75 23.6042 78.2969 22.6771 79.0156 21.9062C79.7344 21.1354 80.6198 20.5469 81.6719 20.1406C82.724 19.724 83.8906 19.5156 85.1719 19.5156C86.8385 19.5156 88.2656 19.8698 89.4531 20.5781C90.651 21.276 91.5469 22.1823 92.1406 23.2969C92.7344 24.4115 93.0312 25.5469 93.0312 26.7031C93.0312 27.776 92.724 28.474 92.1094 28.7969C91.4948 29.1094 90.6302 29.2656 89.5156 29.2656ZM81.1719 26.8438H88.9062C88.8021 25.3854 88.4062 24.2969 87.7188 23.5781C87.0417 22.849 86.1458 22.4844 85.0312 22.4844C83.9688 22.4844 83.0938 22.8542 82.4062 23.5938C81.7292 24.3229 81.3177 25.4062 81.1719 26.8438ZM96.875 19.9219H97.3438V17.3594C97.3438 16.6719 97.3594 16.1354 97.3906 15.75C97.4323 15.3542 97.5365 15.0156 97.7031 14.7344C97.8698 14.4427 98.1094 14.2083 98.4219 14.0312C98.7344 13.8438 99.0833 13.75 99.4688 13.75C100.01 13.75 100.5 13.9531 100.938 14.3594C101.229 14.6302 101.411 14.9635 101.484 15.3594C101.568 15.7448 101.609 16.2969 101.609 17.0156V19.9219H103.172C103.776 19.9219 104.234 20.0677 104.547 20.3594C104.87 20.6406 105.031 21.0052 105.031 21.4531C105.031 22.026 104.802 22.4271 104.344 22.6562C103.896 22.8854 103.25 23 102.406 23H101.609V30.8438C101.609 31.5104 101.63 32.026 101.672 32.3906C101.724 32.7448 101.849 33.0365 102.047 33.2656C102.255 33.4844 102.589 33.5938 103.047 33.5938C103.297 33.5938 103.635 33.5521 104.062 33.4688C104.49 33.375 104.823 33.3281 105.062 33.3281C105.406 33.3281 105.714 33.4688 105.984 33.75C106.266 34.0208 106.406 34.3594 106.406 34.7656C106.406 35.4531 106.031 35.9792 105.281 36.3438C104.531 36.7083 103.453 36.8906 102.047 36.8906C100.714 36.8906 99.7031 36.6667 99.0156 36.2188C98.3281 35.7708 97.875 35.151 97.6562 34.3594C97.4479 33.5677 97.3438 32.5104 97.3438 31.1875V23H96.7812C96.1667 23 95.6979 22.8542 95.375 22.5625C95.0521 22.2708 94.8906 21.901 94.8906 21.4531C94.8906 21.0052 95.0573 20.6406 95.3906 20.3594C95.7344 20.0677 96.2292 19.9219 96.875 19.9219ZM112.25 21.9688V34.2969C112.25 35.151 112.047 35.7969 111.641 36.2344C111.234 36.6719 110.719 36.8906 110.094 36.8906C109.469 36.8906 108.958 36.6667 108.562 36.2188C108.177 35.7708 107.984 35.1302 107.984 34.2969V22.0938C107.984 21.25 108.177 20.6146 108.562 20.1875C108.958 19.7604 109.469 19.5469 110.094 19.5469C110.719 19.5469 111.234 19.7604 111.641 20.1875C112.047 20.6146 112.25 21.2083 112.25 21.9688ZM110.141 17.5625C109.547 17.5625 109.036 17.3802 108.609 17.0156C108.193 16.651 107.984 16.1354 107.984 15.4688C107.984 14.8646 108.198 14.3698 108.625 13.9844C109.062 13.5885 109.568 13.3906 110.141 13.3906C110.693 13.3906 111.182 13.5677 111.609 13.9219C112.036 14.276 112.25 14.7917 112.25 15.4688C112.25 16.125 112.042 16.6406 111.625 17.0156C111.208 17.3802 110.714 17.5625 110.141 17.5625ZM131.969 31.6094C131.969 32.1406 131.807 32.7083 131.484 33.3125C131.172 33.9167 130.688 34.4948 130.031 35.0469C129.385 35.5885 128.568 36.026 127.578 36.3594C126.589 36.6927 125.474 36.8594 124.234 36.8594C121.599 36.8594 119.542 36.0938 118.062 34.5625C116.583 33.0208 115.844 30.9583 115.844 28.375C115.844 26.625 116.182 25.0781 116.859 23.7344C117.536 22.3906 118.516 21.3542 119.797 20.625C121.078 19.8854 122.609 19.5156 124.391 19.5156C125.495 19.5156 126.505 19.6771 127.422 20C128.349 20.3229 129.13 20.7396 129.766 21.25C130.411 21.7604 130.901 22.3073 131.234 22.8906C131.578 23.4635 131.75 24 131.75 24.5C131.75 25.0104 131.557 25.4427 131.172 25.7969C130.797 26.151 130.339 26.3281 129.797 26.3281C129.443 26.3281 129.146 26.2396 128.906 26.0625C128.677 25.875 128.417 25.5781 128.125 25.1719C127.604 24.3802 127.057 23.7865 126.484 23.3906C125.922 22.9948 125.203 22.7969 124.328 22.7969C123.068 22.7969 122.052 23.2917 121.281 24.2812C120.51 25.2604 120.125 26.6042 120.125 28.3125C120.125 29.1146 120.224 29.8542 120.422 30.5312C120.62 31.1979 120.906 31.7708 121.281 32.25C121.656 32.7188 122.109 33.0781 122.641 33.3281C123.172 33.5677 123.755 33.6875 124.391 33.6875C125.245 33.6875 125.974 33.4896 126.578 33.0938C127.193 32.6979 127.734 32.0938 128.203 31.2812C128.464 30.8021 128.745 30.4271 129.047 30.1562C129.349 29.8854 129.719 29.75 130.156 29.75C130.677 29.75 131.109 29.9479 131.453 30.3438C131.797 30.7396 131.969 31.1615 131.969 31.6094Z" fill="#F05B72"/>
</svg>
