<svg width="20" height="24" viewBox="0 0 20 24" fill="none" xmlns="http://www.w3.org/2000/svg">
<g clip-path="url(#clip0_731_2991)">
<path d="M6.161 10.717L9.9322 19.1025L13.9947 10.3521C14.3135 9.65002 14.6263 9.15026 14.9329 8.85899C15.2395 8.56465 15.7055 8.42055 16.331 8.42055C16.9227 8.42055 17.4255 8.57691 17.8425 8.89271C18.2564 9.20851 18.4649 9.57337 18.4649 9.98728C18.4649 10.1498 18.4281 10.3399 18.3545 10.5545C18.281 10.7722 18.1951 10.9745 18.1001 11.1616C18.0019 11.3517 17.8916 11.5663 17.7659 11.8116L13.2956 20.6018C13.1699 20.8532 13.0074 21.1752 12.8081 21.5615C12.6088 21.9478 12.3881 22.282 12.1428 22.5549C11.8975 22.8308 11.597 23.0454 11.2383 23.1987C10.8796 23.352 10.4442 23.4287 9.9322 23.4287C9.273 23.4287 8.74565 23.3091 8.3532 23.07C7.96075 22.8308 7.66948 22.5702 7.48245 22.2851C7.29543 21.9999 6.97962 21.4388 6.53505 20.6018L2.09853 11.9066C1.99735 11.6889 1.89004 11.4743 1.78273 11.2566C1.67542 11.0389 1.58344 10.8182 1.50985 10.5944C1.43627 10.3705 1.39948 10.1743 1.39948 10.0118C1.39948 9.76039 1.49453 9.50898 1.69075 9.26063C1.88391 9.01229 2.15065 8.80993 2.49404 8.65356C2.83437 8.4972 3.20536 8.41748 3.60394 8.41748C4.37658 8.41748 4.91006 8.59224 5.19827 8.94483C5.48954 9.29743 5.8084 9.8861 6.161 10.717Z" fill="#F05B72"/>
<path d="M2.99686 6.79248C2.77611 5.7439 3.03365 4.59108 3.78483 3.78472C4.36124 3.16232 5.07869 2.85571 5.78694 2.85571C6.49519 2.85571 7.20344 3.16232 7.78291 3.78472L9.07677 5.17975C9.51521 5.65499 10.2541 5.68258 10.7294 5.24414C10.7508 5.22268 10.7723 5.20122 10.7937 5.17975L12.0815 3.79085C13.2374 2.54605 14.9237 2.54605 16.0796 3.79085C16.8277 4.59415 17.0883 5.7439 16.8675 6.78941H19.2437C19.446 5.16749 18.9647 3.47198 17.7873 2.20265C15.7791 0.0411124 12.3758 0.0411124 10.3676 2.20265L9.93526 2.66256L9.49068 2.18732C8.4881 1.10809 7.13905 0.571533 5.78387 0.571533C4.42869 0.571533 3.07351 1.10809 2.07093 2.18732C0.890511 3.45665 0.412215 5.15829 0.617638 6.78635H2.9938L2.99686 6.79248Z" fill="#F05B72"/>
</g>
<defs>
<clipPath id="clip0_731_2991">
<rect width="19.4286" height="24" fill="white"/>
</clipPath>
</defs>
</svg>